<svg xmlns="http://www.w3.org/2000/svg" viewBox="0 0 100.26 100.26"><defs><style>.cls-1{fill:#84c9bc;}.cls-2{fill:#d3dce6;}.cls-3{fill:#3e6da5;}.cls-4,.cls-5{fill:none;}.cls-4{stroke:#231815;stroke-linecap:round;stroke-linejoin:round;}</style></defs><title>fa1</title><g id="图层_2" data-name="图层 2"><g id="图层_1-2" data-name="图层 1"><path class="cls-1" d="M63.78,26.39a1.07,1.07,0,0,1-.14.55l-3.13,5.41a6.32,6.32,0,0,0-1.94-1.09h0l3.14-5.43a1.11,1.11,0,0,1,1.52-.4A1.09,1.09,0,0,1,63.78,26.39Z"/><path class="cls-2" d="M50.13,9.83a40.3,40.3,0,1,1-40.3,40.3A40.3,40.3,0,0,1,50.13,9.83Zm33.64,40.3A33.64,33.64,0,1,0,50.13,83.77,33.64,33.64,0,0,0,83.77,50.13Z"/><path class="cls-2" d="M61.06,32.83c3,3,2.61,8.22-.85,11.68a10.88,10.88,0,0,1-1.65,1.34A15.93,15.93,0,0,0,47.48,41.4l-.88,0a9.23,9.23,0,0,1,2.78-7.74,9,9,0,0,1,9.19-2.43h0a6.32,6.32,0,0,1,1.94,1.09A5,5,0,0,1,61.06,32.83Z"/><path class="cls-2" d="M46.6,41.42l.88,0a15.94,15.94,0,1,1-.88,0Z"/><path class="cls-3" d="M50.13,16.49A33.64,33.64,0,1,1,16.49,50.13,33.64,33.64,0,0,1,50.13,16.49ZM63.64,26.94a1.07,1.07,0,0,0,.14-.55,1.09,1.09,0,0,0-.55-1,1.11,1.11,0,0,0-1.52.4l-3.14,5.43a9,9,0,0,0-9.19,2.43,9.23,9.23,0,0,0-2.78,7.74,16,16,0,1,0,12,4.43,10.88,10.88,0,0,0,1.65-1.34c3.46-3.46,3.84-8.69.85-11.68a5,5,0,0,0-.55-.48Z"/><circle class="cls-4" cx="50.13" cy="50.13" r="40.3"/><circle class="cls-4" cx="50.13" cy="50.13" r="33.64"/><path class="cls-4" d="M58.56,45.85a16,16,0,1,1-12-4.43l.88,0A15.93,15.93,0,0,1,58.56,45.85Z"/><path class="cls-4" d="M58.57,31.25a9,9,0,0,0-9.19,2.43,9.23,9.23,0,0,0-2.78,7.74h0"/><path class="cls-4" d="M58.56,45.85a10.88,10.88,0,0,0,1.65-1.34c3.46-3.46,3.84-8.69.85-11.68a5,5,0,0,0-.55-.48,6.32,6.32,0,0,0-1.94-1.09"/><path class="cls-4" d="M42.33,59.43A12.91,12.91,0,0,1,46.7,46.08"/><path class="cls-4" d="M58.57,31.26h0l3.14-5.43a1.11,1.11,0,0,1,1.52-.4,1.09,1.09,0,0,1,.55,1,1.07,1.07,0,0,1-.14.55l-3.13,5.41"/><rect class="cls-5" width="100.26" height="100.26"/></g></g></svg>